<?xml version="1.0" encoding="utf-8"?>
<!-- Designed by Vexels.com - 2021 All Rights Reserved - https://vexels.com/terms-and-conditions/  -->
<svg version="1.1" id="Layer_1" xmlns="http://www.w3.org/2000/svg" xmlns:xlink="http://www.w3.org/1999/xlink" x="0px" y="0px"
	 viewBox="0 0 1200 1200" enable-background="new 0 0 1200 1200" xml:space="preserve">
<g>
	<path fill="#3D3D3D" d="M590.033,964.736c-6.725-7.516-16.216-23.882-27.125-30.368c-10.909-6.487-8.256-0.884-11.794-1.179
		c-3.538-0.295-41.572-38.624-41.572-39.508c0-0.884-2.359-1.474-3.538-1.769c-1.18-0.295-8.845-11.794-14.153-21.818
		c-5.307-10.024-55.134-47.764-64.569-53.955c-9.434-6.192-10.025-15.037-8.255-19.459c7.961-3.833,29.189,1.179,31.253,2.653
		c2.064,1.474,21.523,1.474,33.612-0.59s26.83-19.459,19.164-28.01c-7.666-8.55-19.164-58.083-17.396-59.557
		c1.769-1.474-8.255-40.688-15.921-58.968c-7.666-18.28-62.21-94.348-80.49-125.011c-18.28-30.663-31.547-41.867-35.675-42.456
		c3.243-7.076-1.474-17.101-3.538-22.113c-2.064-5.012-12.089-61.621-12.089-64.569c0-2.948,12.383-22.113,12.383-22.113
		l-0.294-6.486c3.833,12.383,62.21,48.943,67.518,59.557c5.307,10.614,46.584,18.87,71.351,26.535
		c20.091,6.218,59.973,7.781,86.907,14.446c-8.336,12.813-13.198,28.095-13.198,44.521c0,45.159,36.609,81.768,81.768,81.768
		c45.159,0,81.768-36.609,81.768-81.768c0-21.904-8.629-41.78-22.653-56.459c-2.264-4.503-5.769-9.033-10.86-12.532
		c-8.6-5.912-20.332-8.875-28.233-10.297c-2.784-0.701-5.628-1.25-8.517-1.657c0.214-1.005,0.652-3.619,0.19-6.62
		c-0.59-3.833-19.754-4.717-22.997-6.192c-3.243-1.474-25.945,7.96-28.894,8.255c-2.948,0.295-20.344,0.295-40.098-5.602
		c-19.754-5.897-46.289-23.882-66.633-32.727c-20.344-8.845-33.022-6.486-42.457-10.025c-9.435-3.538-63.39-45.405-63.39-45.405
		s-4.717-23.587-23.292-48.058c-18.575-24.471-61.326-22.997-61.326-22.997s-1.621-3.833-4.57-6.191
		c-2.948-2.359-15.921-3.833-20.639-3.98c1.474-8.108,0.147-31.695-0.885-39.361c-1.032-7.666-10.761-30.663-10.761-30.663
		s-3.096-2.801,0.294-7.961c3.215-4.891-5.464-10.879-8.555-13.496c-4.498-3.809-9.444-7.225-14.964-9.371
		c-3.713-1.443-7.589-2.487-11.479-3.323c-10.02-2.153-20.587-2.974-30.75-1.377c-20.639,3.244-30.073,25.504-34.201,35.97
		c-4.128,10.467-1.621,49.238-1.621,49.238s-0.737,1.769-1.475,3.538c-4.275,11.498,5.75,20.933,6.192,26.388
		c0.442,5.455,11.941,9.14,11.941,9.14l1.032,4.423c0,0-11.351,1.474-19.754,6.929c-8.403,5.455-32.875,17.543-39.508,23.439
		s-21.081,23.292-27.42,27.42c-6.339,4.128-7.961,15.479-7.961,15.479s-14.004,11.646-27.567,33.759
		c-13.563,22.113-2.064,30.958-7.076,38.918c-5.012,7.961-2.948,45.995-5.897,55.724c-2.948,9.729-0.295,38.624,0.295,54.25
		c0.59,15.626,24.471,50.417,30.662,66.633c6.192,16.216,19.312,60.442,18.723,63.243s-16.069,25.651-16.069,29.484
		s0,38.403-0.442,41.941s2.506,5.602,7.15,8.108c4.643,2.506,16.142,10.393,18.574,11.793c2.433,1.4,6.782,1.106,6.782,1.106
		l-0.811-5.233c0.221,1.621,8.108,3.612,8.108,3.612c0.59-0.737-0.221-6.56-0.221-6.56c1.327,1.769,6.339,2.948,6.339,2.948
		c3.317-1.695-0.074-9.803-0.074-9.803c3.538,2.064,8.55,2.064,8.993,1.769c1.474-8.698-10.024-14.742-13.415-16.658
		c-3.39-1.916-11.793-13.415-12.088-15.037c-0.294-1.621,0-12.088,1.18-13.857c1.179-1.769,12.383-11.499,12.383-11.499
		c1.032,17.248,7.961,17.395,10.025,16.953c4.275-1.179,5.897-11.793,4.57-17.395c-1.327-5.602,0.885-21.523,0.148-25.061
		c-0.737-3.538-7.518-8.403-9.877-9.14c-2.359-0.737-1.327-1.179-5.012-12.236c-3.686-11.056-12.973-49.091-12.088-58.525
		c0.884-9.435-5.455-42.162-6.486-49.68c-1.032-7.518-7.224-26.241-7.961-28.305c4.423-1.474,9.386-9.189,11.351-13.12
		c8.059,2.948,17.297,30.073,18.083,33.022c0.786,2.948,2.359,11.007,0.197,19.459c-2.162,8.452,3.145,12.58,4.718,17.101
		c1.572,4.521,3.93,4.717,3.93,16.118c0,11.401,6.487,11.597,6.487,11.597s-2.162,4.914-2.359,10.221
		c-0.197,5.307,5.946,21.326,10.221,33.709c4.275,12.383,10.467,23.882,16.805,33.464c6.339,9.582,17.248,16.216,17.985,17.395
		c0.737,1.179-0.983,3.686,11.597,16.265c12.58,12.58,80.982,82.161,80.982,82.161s-1.966,15.528,5.11,24.177
		c7.076,8.649,18.477,9.042,25.356,11.99c6.88,2.948,7.862,18.083,6.093,24.766c-1.769,6.683,1.572,19.656,8.059,26.535
		s32.628,25.356,43.833,22.604c11.204-2.752,11.597-28.304,11.597-28.894c0-0.59,9.042,10.811,12.383,16.511
		c3.341,5.7,71.547,58.771,71.94,61.326c0.393,2.555,48.157,22.997,48.157,22.997s2.358,4.717,1.769,6.093
		c-0.59,1.376,23.98,30.467,28.305,36.167c4.324,5.7-4.718,23.587-7.273,31.253c-2.555,7.666-6.093,10.811,0.787,15.528
		c6.88,4.718,57.395,0.786,68.008-1.572c10.615-2.359,10.418-27.125,9.435-33.415C613.325,1008.863,591.704,966.604,590.033,964.736
		z"/>
	<path fill="#3D3D3D" d="M1146.963,580.739c-7.228-58.474-27.202-115.468-58.213-165.484
		c-59.366-95.747-160.835-163.19-271.931-182.13c-13.198-2.25-26.518-3.787-39.884-4.565
		c-90.398-5.267-183.662,25.604-248.522,88.792c111.287-62.457,250.612-72.446,369.67-26.504
		c-70.277,79.476-128.594,169.509-172.386,266.14c-16.548,36.514-31.223,74.301-54.316,107.07
		c-23.093,32.77-56.316,60.686-95.853,67.317c-16.011-65.955-32.021-131.911-48.032-197.866
		c-4.006,68.621,7.389,138.099,33.106,201.845c-11.27,2.146-22.539,4.293-33.809,6.439c11.882,3.211,24.249,4.618,36.548,4.158
		c9.966,26.127,19.932,52.254,29.898,78.381c-22.874,5-46.009,8.803-69.279,11.388c25.122,4.226,50.806,5.1,76.158,2.592
		c9.164,15.598,18.327,31.196,27.491,46.793c-12.943,4.684-24.865,12.164-34.715,21.778c13.86-6.826,30.522-13.648,44.036-6.16
		c6.29,3.485,10.652,9.538,15.039,15.235c25.224,32.753,58.065,59.601,95.179,77.809c-18.714,2.05-37.427,4.099-56.141,6.149
		c51.018,24.022,111.023,21.993,165.552,7.626c136.458-35.953,249.132-150.6,282.711-287.661
		C1150.414,674.395,1152.694,627.102,1146.963,580.739z M610.523,819.775c-12.148-24.388-22.053-49.892-29.548-76.087
		c35.624-5.633,69.048-24.254,92.585-51.582c16.972-19.705,28.641-43.312,40.243-66.587
		c40.931-82.111,83.359-163.679,133.448-240.546c18.006-27.632,37.263-54.943,62.25-76.471c2.578-2.221,5.462-4.479,8.859-4.681
		c3.062-0.181,5.936,1.35,8.602,2.868c67.386,38.368,121.66,97.16,153.789,167.811c2.158,4.746,4.246,9.657,4.597,14.859
		c0.445,6.588-1.929,13.017-4.505,19.097c-24.439,57.69-69.71,104.084-118.377,143.543
		c-101.865,82.593-223.254,140.942-351.38,168.902C610.898,820.526,610.711,820.151,610.523,819.775z M1016.622,871.485
		c-9.907,10.454-21.494,20.062-31.366,28.509c-18.085,15.473-37.649,29.214-58.318,41.016
		c-40.845,23.322-86.06,39.086-132.668,45.595c-4.852,0.678-9.772,1.26-14.639,0.703c-5.958-0.682-11.584-3.04-17.029-5.552
		c-42.35-19.533-79.519-50.172-106.776-88.015c32.444-2.607,65.083-2.768,97.551-0.48c40.673,2.866,81.2,9.569,121.957,8.37
		c27.875-0.821,55.664-5.468,82.226-13.987c27.591-8.848,49.758-24.206,75.048-37.045
		C1028.54,857.849,1022.921,864.838,1016.622,871.485z M1112.077,629.076c-0.311,29.537-4.128,59.006-11.908,87.656
		c-8.526,32.716-21.821,64.122-39.124,93.179c-6.278,10.521-28.428,19.296-38.721,25.548
		c-20.953,12.725-42.853,24.355-65.805,33.051c-39.913,15.1-81.379,18.864-123.733,15.863
		c-38.073-2.697-75.297-12.052-113.528-13.36c-22.354-0.765-44.849,1.751-66.795,6.784c-2.47,0.536-4.918,1.273-7.366,1.936
		c-9.774-14.037-18.667-28.747-26.701-43.905c27.394-3.942,54.245-10.838,80.64-18.845c28.405-8.633,56.222-19.044,83.478-30.726
		c27.197-11.827,53.807-24.982,79.734-39.405c25.947-14.391,51.095-30.255,75.306-47.509c24.224-17.236,47.425-36.009,69.159-56.504
		c21.745-20.463,41.944-42.809,59.325-67.51c12.252-17.761,23.002-36.929,30.754-57.428c2.347,7.629,4.476,15.321,6.161,23.126
		C1109.194,569.943,1112.388,599.543,1112.077,629.076z"/>
</g>
</svg>
